<?xml version="1.0" encoding="utf-8"?>
<!-- Generator: Adobe Illustrator 19.2.1, SVG Export Plug-In . SVG Version: 6.00 Build 0)  -->
<svg version="1.1" id="Layer_1" xmlns="http://www.w3.org/2000/svg" xmlns:xlink="http://www.w3.org/1999/xlink" x="0px" y="0px"
	 viewBox="0 0 21.9 22.1" style="enable-background:new 0 0 21.9 22.1;" xml:space="preserve">
<style type="text/css">
	.st0{fill:none;stroke:#FFFFFF;stroke-width:0.5;stroke-miterlimit:10;}
	.st1{fill:#FFFFFF;}
</style>
<rect x="4.2" y="4.1" transform="matrix(0.7071 -0.7071 0.7071 0.7071 -4.5052 11.0897)" class="st0" width="13.9" height="13.9"/>
<g>
	<path class="st1" d="M11,10.4c0,0.9-0.3,1.4-1,1.7l1.4,1.9H9.9l-1.2-1.7H7.8V14H6.6V8.6h2.1c0.8,0,1.4,0.1,1.8,0.4
		C10.8,9.3,11,9.7,11,10.4z M9.6,11c0.1-0.1,0.2-0.3,0.2-0.6c0-0.3-0.1-0.5-0.2-0.6C9.4,9.7,9.1,9.6,8.7,9.6H7.8v1.6h0.9
		C9.1,11.2,9.4,11.1,9.6,11z"/>
	<path class="st1" d="M16,8.6v1.1h-2.5v1.2h2.4v1.1h-2.4V14h-1.2V8.6H16z"/>
</g>
</svg>
